# xmcd
#
# Track frame offsets:
#	150
#	15371
#	30388
#	49250
#	62880
#	78223
#	92429
#	104590
#	127329
#	143731
#	157129
#	170808
#
# Disc length: 2529 seconds
# Revision: 2
# Processed by: cddbd v1.5.2PL0 Copyright (c) Steve Scherf et al.
# Submitted via: dBpowerAMP V12.0
#
DISCID=9f09df0c
DTITLE=Della Mae - I Built This Heart
DYEAR=2011
DGENRE=Country
TTITLE0=Jamie Dear
TTITLE1=Sweet Verona
TTITLE2=Aberdeen
TTITLE3=Polk County
TTITLE4=My Heart's Own Love
TTITLE5=The Most
TTITLE6=Bowling Green
TTITLE7=Aged Pine
TTITLE8=Down to You
TTITLE9=From the Bottle
TTITLE10=Blessed Hands
TTITLE11=Ballad of a Lonely Woman
EXTD=
EXTT0=
EXTT1=
EXTT2=
EXTT3=
EXTT4=
EXTT5=
EXTT6=
EXTT7=
EXTT8=
EXTT9=
EXTT10=
EXTT11=
PLAYORDER=
